<svg width="299" height="351" viewBox="0 0 299 351" fill="none" xmlns="http://www.w3.org/2000/svg">
<g clip-path="url(#clip0_29_1914)">
<path d="M294.543 293.592H95.2872C94.1055 293.591 92.9727 293.122 92.1371 292.288C91.3015 291.454 90.8315 290.323 90.8302 289.144V4.44837C90.8315 3.26899 91.3015 2.1383 92.1371 1.30435C92.9726 0.470405 94.1055 0.00131592 95.2872 0H294.543C295.725 0.0013173 296.858 0.470405 297.693 1.30435C298.529 2.13829 298.999 3.26899 299 4.44837V289.144C298.999 290.323 298.529 291.454 297.693 292.288C296.858 293.122 295.725 293.591 294.543 293.592Z" fill="#3F3D56"/>
<path d="M290.348 289.405H99.4821C98.3004 289.404 97.1675 288.935 96.332 288.101C95.4964 287.267 95.0264 286.136 95.025 284.957V8.63501C95.0263 7.45563 95.4963 6.32494 96.3319 5.491C97.1675 4.65705 98.3004 4.18796 99.4821 4.18665H290.348C291.53 4.18796 292.663 4.65705 293.498 5.491C294.334 6.32494 294.804 7.45563 294.805 8.63501V284.957C294.804 286.136 294.334 287.267 293.498 288.101C292.663 288.935 291.53 289.404 290.348 289.405Z" fill="white"/>
<path d="M151.691 274.916C134.712 252.547 141.445 227.016 131.498 209.205C93.3738 140.941 140.319 147.23 193.394 160.505L193.521 161.978C159.74 167.181 137.524 184.533 132.569 209.584C128.718 229.053 135.784 251.88 152.468 273.861L151.691 274.916Z" fill="#E2D1BB"/>
<path d="M188.987 191.664L188.633 190.26C207.585 181.685 205.956 156.141 222.913 150.309C352.08 105.875 224.578 100.864 195.898 77.3613C170.252 56.3435 142.302 31.9075 106.78 19.3222L107.064 17.8894C142.74 30.53 174.543 51.249 196.613 76.2299C218.795 101.336 228.515 127.779 223.983 150.688C220.41 168.753 208.308 182.922 188.987 191.664Z" fill="#E2D1BB"/>
<path d="M137.397 142.433C128.736 141.75 138.956 136.03 139.64 127.386C139.802 125.33 140.368 123.326 141.306 121.488C142.244 119.651 143.535 118.015 145.107 116.676C146.678 115.337 148.499 114.32 150.464 113.683C152.429 113.046 154.501 112.802 156.561 112.964C158.621 113.126 160.629 113.692 162.47 114.629C164.31 115.566 165.948 116.856 167.289 118.425C168.63 119.994 169.649 121.811 170.286 123.773C170.923 125.735 171.167 127.803 171.004 129.859C170.319 138.503 146.058 143.116 137.397 142.433Z" fill="#F24236"/>
<path d="M220.555 88.6182C218.496 88.4558 216.489 87.8902 214.648 86.9536C212.808 86.0171 211.17 84.7279 209.829 83.1597C208.488 81.5916 207.469 79.7751 206.832 77.8141C206.194 75.853 205.949 73.7858 206.112 71.7304C206.796 63.0864 189.597 57.3042 198.258 57.987C206.919 58.6699 238.16 65.5593 237.476 74.2033C237.313 76.2586 236.746 78.2619 235.808 80.0986C234.87 81.9354 233.578 83.5697 232.007 84.9083C230.435 86.2468 228.615 87.2634 226.651 87.8999C224.686 88.5365 222.614 88.7805 220.555 88.6182Z" fill="#F24236"/>
<path d="M239.511 68.9143C240.653 71.2774 239.98 74.0077 238.473 76.0479C236.758 78.3686 234.031 79.5126 231.233 79.8907C228.231 80.2544 225.185 80.0041 222.282 79.155C219.482 78.3485 216.576 76.6197 215.999 73.5311C215.614 71.4726 216.494 69.2758 218.635 68.7052C219.494 68.4884 220.395 68.4961 221.25 68.7277C222.105 68.9593 222.886 69.4068 223.518 70.0273C225.296 71.8747 225.161 74.8399 224.031 76.9856C222.701 79.5093 220.041 80.902 217.307 81.3616C214.055 81.9079 210.788 81.1447 207.729 80.0588C204.405 78.8785 201.18 77.4087 197.922 76.0587C191.57 73.4258 185.081 70.9525 178.249 69.9039C167.814 68.3021 155.429 70.7963 149.041 79.9274C145.593 84.8566 144.616 91.0384 145.358 96.9193C146.141 103.121 148.867 108.82 152.478 113.867C154.389 116.492 156.477 118.985 158.726 121.329C159.458 122.04 159.962 122.951 160.173 123.948C160.385 124.945 160.295 125.983 159.914 126.928C157.935 131.782 150.023 130.235 149.433 125.232C149.165 122.959 150.436 120.618 152.024 119.076C153.825 117.394 156.096 116.297 158.535 115.928C163.669 115.072 169.097 116.972 173.021 120.272C177.455 124.001 179.951 129.667 181.266 135.182C182.763 141.462 182.839 147.921 182.982 154.34C183.127 160.909 183.377 167.555 185.266 173.895C186.801 178.998 189.172 183.813 192.281 188.144C198.491 196.87 207.32 203.4 217.492 206.79C219.952 207.587 222.475 208.177 225.034 208.554C226.036 208.702 226.156 207.136 225.158 206.989C214.003 205.338 203.745 199.31 196.401 190.837C192.721 186.609 189.812 181.77 187.807 176.54C185.413 170.24 184.805 163.548 184.61 156.862C184.41 150.033 184.519 143.142 183.149 136.416C181.938 130.469 179.563 124.447 175.163 120.114C171.285 116.293 165.735 113.93 160.251 114.183C155.148 114.419 149.692 117.224 148.175 122.421C147.464 124.859 147.916 127.477 149.781 129.288C150.845 130.294 152.167 130.987 153.601 131.29C155.035 131.592 156.525 131.492 157.905 131.001C159.405 130.354 160.61 129.172 161.286 127.687C161.961 126.202 162.058 124.519 161.559 122.966C161.139 121.825 160.465 120.795 159.587 119.954C154.983 115.047 150.758 109.556 148.466 103.167C146.328 97.2078 145.889 90.3526 148.355 84.4228C153.024 73.1969 166.572 69.8238 177.608 71.3927C184.831 72.4195 191.67 75.1487 198.36 77.9404C201.777 79.3659 205.171 80.9501 208.714 82.0414C211.886 83.0183 215.291 83.509 218.559 82.7077C221.412 82.0083 224.033 80.353 225.415 77.7049C226.67 75.2995 226.887 72.2472 225.394 69.8907C223.236 66.4836 217.277 65.7172 215.105 69.5439C213.664 72.0831 214.372 75.3346 216.265 77.4405C218.386 79.8014 221.563 80.7658 224.604 81.2525C230.349 82.1722 237.424 81.4494 240.498 75.7856C241.764 73.4523 242.106 70.6703 240.928 68.2311C240.833 68.0509 240.672 67.9145 240.478 67.8507C240.284 67.787 240.073 67.8009 239.889 67.8896C239.705 67.9782 239.563 68.1346 239.493 68.3258C239.422 68.517 239.429 68.728 239.511 68.9143Z" fill="#0D1B1E"/>
<path d="M221.031 208.873C211.846 208.149 187.289 220.692 180.642 215.296C179.811 214.627 179.007 213.924 178.231 213.19C175.689 210.811 173.444 208.134 171.545 205.218C171.216 204.725 170.903 204.228 170.601 203.727C169.536 201.945 168.598 200.09 167.795 198.177C167.654 197.83 167.514 197.477 167.373 197.125C163.632 187.476 163.443 176.815 166.838 167.04C170.234 157.264 176.995 149.008 185.917 143.741C194.839 138.473 205.345 136.536 215.564 138.274C225.783 140.012 235.053 145.312 241.725 153.231C242.081 153.647 242.426 154.074 242.765 154.51C246.151 158.838 248.686 163.767 250.236 169.037C250.236 169.042 250.241 169.042 250.24 169.048C252.552 176.949 252.59 185.341 250.349 193.262L250.348 193.273C250.297 193.447 250.247 193.622 250.191 193.796C244.455 213.172 242.018 210.528 221.031 208.873Z" fill="#F24236"/>
<path d="M167.993 198.198C167.926 198.199 167.86 198.192 167.795 198.177C167.654 197.83 167.514 197.477 167.373 197.125C167.432 196.977 167.535 196.851 167.668 196.763C167.801 196.675 167.957 196.63 168.117 196.633C168.912 196.63 169.704 196.539 170.479 196.362C177.205 194.845 181.126 187.973 182.806 181.837C184.868 174.33 184.896 166.263 188.622 159.26C190.07 156.382 192.198 153.899 194.823 152.027C197.705 150.077 201.207 149.26 204.656 149.731C212.772 150.801 218.695 157.038 226.229 159.605C229.333 160.664 232.637 160.924 235.741 159.72C238.378 158.7 240.783 156.684 241.328 153.788C241.346 153.67 241.391 153.559 241.46 153.462C241.529 153.366 241.62 153.286 241.725 153.231C242.081 153.647 242.426 154.074 242.765 154.51C242.644 155.033 242.468 155.541 242.24 156.028C240.916 158.8 238.275 160.592 235.401 161.489C232.074 162.523 228.612 162.129 225.374 160.971C217.824 158.271 211.615 151.597 203.279 151.181C196.054 150.822 191.061 156.749 188.657 162.932C185.685 170.583 186.126 179.159 182.789 186.697C180.163 192.627 174.901 198.17 167.993 198.198Z" fill="#0D1B1E"/>
<path d="M171.545 205.218C171.216 204.725 170.903 204.228 170.601 203.727C170.674 203.668 170.759 203.626 170.849 203.604C170.94 203.581 171.035 203.578 171.127 203.595C177.868 204.389 184.659 202.582 190.11 198.545C192.501 196.8 194.58 194.663 196.259 192.226C198.002 189.676 199.055 186.809 200.236 183.978C201.398 181.192 202.762 178.376 205.073 176.359C207.43 174.303 210.47 173.44 213.549 173.347C220.846 173.129 227.209 177.269 234.31 178.123C237.478 178.504 240.623 178.049 243.335 176.283C245.675 174.756 247.379 172.366 247.27 169.496C247.229 168.548 248.613 168.61 248.815 169.444C248.829 169.502 248.837 169.561 248.838 169.62C248.963 172.958 246.907 175.814 244.2 177.58C241.055 179.636 237.38 180.145 233.702 179.624C226.587 178.611 220.01 174.313 212.648 174.961C211.103 175.05 209.594 175.462 208.218 176.17C206.843 176.878 205.632 177.867 204.664 179.072C202.727 181.554 201.703 184.587 200.507 187.464C199.373 190.339 197.787 193.016 195.808 195.393C193.807 197.714 191.446 199.701 188.815 201.278C183.641 204.43 177.578 205.813 171.545 205.218Z" fill="#0D1B1E"/>
<path d="M180.642 215.296C179.811 214.627 179.007 213.925 178.231 213.19C182.237 214.207 186.411 214.381 190.488 213.699C195.618 212.878 200.457 210.779 204.558 207.595C206.6 206 208.401 204.119 209.907 202.012C211.623 199.601 213.123 196.937 215.711 195.34C221.329 191.877 228.053 195.043 233.662 196.745C236.59 197.637 239.735 198.242 242.716 197.254C245.028 196.486 247.272 194.784 247.729 192.268C247.907 191.28 249.481 191.399 249.297 192.392C249.262 192.578 249.221 192.764 249.174 192.949C248.453 195.68 246.214 197.651 243.572 198.608C240.123 199.848 236.55 199.267 233.124 198.225C227.49 196.51 220.126 192.985 215.029 197.848C212.878 199.899 211.559 202.677 209.619 204.918C207.889 206.927 205.893 208.691 203.687 210.162C196.909 214.668 188.695 216.497 180.642 215.296Z" fill="#0D1B1E"/>
<path d="M290.61 326.824H253.381C252.199 326.822 251.066 326.353 250.231 325.519C249.395 324.685 248.925 323.555 248.924 322.375V309.292C248.925 308.113 249.395 306.982 250.231 306.148C251.066 305.314 252.199 304.845 253.381 304.844H290.61C291.792 304.845 292.925 305.314 293.76 306.148C294.596 306.982 295.066 308.113 295.067 309.292V322.375C295.066 323.555 294.596 324.685 293.76 325.519C292.925 326.353 291.792 326.822 290.61 326.824Z" fill="#676F82"/>
<path d="M74.7115 174.985L75.6941 184.082L75.1157 196.01L101.588 192.871L104.075 174.985L100.906 175.016L74.7115 174.985Z" fill="#FFB6B6"/>
<path d="M106.299 146.796L98.1143 143.775L94.6168 138.706L82.0361 137.45L74.276 142.412L67.7705 145.718L67.8819 162.982L75.3616 193.896L102.104 192.85L105.624 170.805C105.624 170.805 113.801 159.843 104.995 153.565L106.299 146.796Z" fill="#676F82"/>
<path d="M60.9807 340.136H66.7685L69.5224 317.856H60.9807V340.136Z" fill="#FFB6B6"/>
<path d="M59.0918 336.18L68.3383 335.629V339.583L77.1292 345.643C77.5634 345.942 77.8905 346.372 78.0625 346.87C78.2346 347.368 78.2427 347.907 78.0857 348.41C77.9287 348.913 77.6147 349.352 77.1897 349.665C76.7646 349.977 76.2508 350.145 75.7231 350.145H64.7148L62.8173 346.234L62.0765 350.145H57.9259L59.0918 336.18Z" fill="black"/>
<path d="M93.4908 340.136H99.2787L102.033 317.856H93.4908V340.136Z" fill="#FFB6B6"/>
<path d="M91.602 336.18L100.849 335.629V339.583L109.639 345.643C110.074 345.942 110.401 346.372 110.573 346.87C110.745 347.368 110.753 347.907 110.596 348.41C110.439 348.913 110.125 349.352 109.7 349.665C109.275 349.977 108.761 350.145 108.233 350.145H97.225L95.3275 346.234L94.5867 350.145H90.4361L91.602 336.18Z" fill="black"/>
<path d="M58.4835 320.923H58.5465L59.6595 284.696C58.9392 283.309 58.5736 281.766 58.5954 280.204C58.6171 278.642 59.0254 277.11 59.7841 275.744L59.9434 275.456L59.5302 273.545C58.9995 271.089 59.2431 268.529 60.2274 266.216L61.2658 232.423C57.556 208.428 75.2357 192.779 75.2357 192.779H101.72L107.406 212.276C111.165 248.826 110.483 284.443 104.518 318.95L104.681 319.032C105.266 319.234 105.517 320.043 105.242 320.84C104.966 321.637 104.268 322.12 103.682 321.918L89.6956 321.432C89.1101 321.231 88.8589 320.421 89.1346 319.624C89.4102 318.827 90.1083 318.345 90.6938 318.546L91.6448 319.026L89.6166 284.069L89.8417 277.683L89.378 270.439L87.2341 237.856L79.1191 277.924L70.8299 321.326C71.0586 321.533 71.219 321.804 71.2901 322.103C71.3613 322.403 71.3397 322.717 71.2283 323.004C71.117 323.291 70.921 323.537 70.6663 323.711C70.4116 323.885 70.1101 323.977 69.8017 323.976H58.4835C58.0779 323.976 57.6888 323.815 57.402 323.529C57.1151 323.243 56.954 322.854 56.954 322.45C56.954 322.045 57.1151 321.656 57.402 321.37C57.6888 321.084 58.0779 320.923 58.4835 320.923Z" fill="#0D1B1E"/>
<path d="M55.7301 218.288C55.2247 217.802 54.8323 217.211 54.5805 216.557C54.3287 215.903 54.2237 215.202 54.2728 214.503C54.3219 213.804 54.5239 213.124 54.8647 212.512C55.2054 211.899 55.6766 211.369 56.245 210.957L63.3014 167.729L71.5771 170.636L63.1912 212.278C63.82 213.276 64.0598 214.471 63.8652 215.634C63.6706 216.798 63.0552 217.85 62.1355 218.59C61.2158 219.331 60.0558 219.71 58.8752 219.654C57.6946 219.598 56.5756 219.112 55.7301 218.288Z" fill="#FFB6B6"/>
<path d="M68.8834 145.68C68.8834 145.68 66.5097 144.787 65.6482 150.082C64.9585 154.32 58.2251 179.906 58.8622 185.834C58.0719 186.11 57.3963 186.641 56.9416 187.343C56.4869 188.044 56.2791 188.877 56.3508 189.71L68.7667 189.773C70.6678 187.704 70.9144 185.207 69.9963 184.593L71.7141 177.029L79.8037 152.624L70.6107 146.295L68.8834 145.68Z" fill="#676F82"/>
<path d="M112.892 220.128C113.437 219.687 113.879 219.132 114.186 218.502C114.493 217.872 114.658 217.183 114.67 216.482C114.681 215.782 114.538 215.087 114.252 214.448C113.965 213.808 113.541 213.239 113.011 212.781L110.494 169.3L101.212 171.292L105.976 213.499C105.264 214.441 104.922 215.61 105.015 216.786C105.109 217.962 105.631 219.062 106.484 219.88C107.336 220.697 108.459 221.173 109.64 221.219C110.821 221.265 111.978 220.877 112.892 220.128Z" fill="#FFB6B6"/>
<path d="M106.047 146.66C106.047 146.66 108.489 145.974 108.891 151.323C109.213 155.605 113.715 181.674 112.569 187.525C113.333 187.869 113.96 188.455 114.353 189.194C114.745 189.932 114.88 190.779 114.737 191.603L102.362 190.599C100.646 188.374 100.616 185.866 101.583 185.333L100.524 177.649L94.5687 152.641L104.273 147.124L106.047 146.66Z" fill="#676F82"/>
<path d="M82.8066 136.558C89.7209 136.558 95.326 130.964 95.326 124.063C95.326 117.162 89.7209 111.568 82.8066 111.568C75.8923 111.568 70.2872 117.162 70.2872 124.063C70.2872 130.964 75.8923 136.558 82.8066 136.558Z" fill="#FFB8B8"/>
<path d="M57.9255 150.323C55.2762 149.386 52.6269 148.447 49.9776 147.507C50.4342 146.742 51.0157 146.059 51.6981 145.486C54.2205 143.383 57.7022 143.004 60.9047 142.294C64.1123 141.585 67.5939 140.131 68.7664 137.072C69.9844 133.891 68.2182 130.456 67.193 127.215C65.7567 122.691 65.7872 117.641 67.7107 113.305C69.6342 108.969 73.5422 105.454 78.1811 104.42C82.8199 103.392 88.0627 105.069 90.915 108.858C92.7527 108.307 94.7286 108.448 96.4697 109.252C98.2108 110.057 99.5965 111.469 100.365 113.224C101.03 114.885 101.05 116.886 100.061 118.381C99.071 119.875 96.9546 120.64 95.361 119.809L96.2847 117.469C93.4273 118.436 91.5697 123.593 91.9554 126.581C92.3361 129.565 94.082 132.179 95.8533 134.615C97.6246 137.052 99.5126 139.513 100.274 142.426C101.37 146.615 99.8881 151.194 97.1475 154.553C94.4068 157.911 90.5445 160.191 86.5452 161.867C83.5514 163.123 80.4403 164.08 77.2574 164.724C77.8258 163.62 78.3891 162.516 78.9576 161.411L72.2125 165.484C70.9081 165.611 69.5936 165.687 68.2792 165.712C64.4524 165.778 60.5495 165.378 57.0475 163.853C53.5405 162.323 50.4597 159.552 49.1909 155.951C48.7841 154.786 48.5916 153.557 48.6226 152.324C51.7235 151.655 54.8244 150.988 57.9255 150.323Z" fill="#2F2E41"/>
<path d="M45.2996 336.382C44.9116 336.399 44.5274 336.298 44.1992 336.09C43.8709 335.883 43.6145 335.58 43.4647 335.222C43.3148 334.864 43.2787 334.469 43.3613 334.091C43.444 333.712 43.6413 333.367 43.9265 333.104C43.9743 332.915 44.0086 332.779 44.0564 332.589C44.0393 332.548 44.0221 332.507 44.0048 332.465C43.6138 331.544 42.9587 330.758 42.1218 330.207C41.2848 329.656 40.3033 329.363 39.3006 329.367C38.2978 329.371 37.3185 329.67 36.4857 330.228C35.6529 330.785 35.0036 331.576 34.6195 332.5C33.0846 336.19 31.1302 339.886 30.649 343.787C30.4371 345.512 30.5265 347.26 30.9133 348.954C27.308 341.105 25.4359 332.574 25.4238 323.939C25.423 321.772 25.5437 319.607 25.7851 317.454C25.9846 315.689 26.2614 313.936 26.6155 312.196C28.5479 302.754 32.6968 293.904 38.7214 286.373C41.6373 284.786 43.9954 282.344 45.478 279.377C46.0151 278.311 46.3947 277.172 46.6051 275.997C46.2761 276.04 45.9418 276.067 45.6129 276.089C45.5104 276.094 45.4026 276.099 45.3001 276.105L45.2615 276.107C44.8999 276.123 44.5415 276.034 44.2291 275.852C43.9168 275.669 43.664 275.401 43.5011 275.078C43.3382 274.756 43.2722 274.393 43.311 274.034C43.3498 273.675 43.4917 273.335 43.7198 273.054C43.8618 272.88 44.0039 272.706 44.1461 272.531C44.3618 272.262 44.5829 271.998 44.7986 271.729C44.8235 271.704 44.8469 271.677 44.8687 271.649C45.1168 271.342 45.3648 271.04 45.6129 270.734C45.1601 270.032 44.5511 269.445 43.8334 269.017C41.3475 267.564 37.9179 268.57 36.1223 270.814C34.3212 273.059 33.9815 276.207 34.607 279.011C35.2221 281.397 36.2396 283.661 37.616 285.706C37.4811 285.878 37.3409 286.045 37.2061 286.217C34.7418 289.38 32.5939 292.776 30.7934 296.357C31.2313 292.345 30.7087 288.287 29.2686 284.517C27.809 281.003 25.0734 278.043 22.6643 275.005C19.7706 271.356 13.8368 272.949 13.327 277.574C13.322 277.619 13.3172 277.664 13.3125 277.709C13.6703 277.91 14.0206 278.124 14.3633 278.35C14.7939 278.637 15.1275 279.047 15.3204 279.527C15.5134 280.007 15.5567 280.533 15.4447 281.038C15.3327 281.542 15.0706 282.001 14.6928 282.355C14.3149 282.708 13.8389 282.939 13.3272 283.018L13.2748 283.026C13.4023 284.313 13.6276 285.589 13.9488 286.842C14.8796 290.34 16.5245 293.608 18.7803 296.442C21.036 299.276 23.854 301.614 27.0577 303.31C27.268 303.418 27.4729 303.525 27.6832 303.628C25.8742 308.744 24.7395 314.074 24.3076 319.483C24.0631 322.674 24.0775 325.879 24.3507 329.068L24.3345 328.955C23.6443 325.409 21.7491 322.21 18.9691 319.897C14.8401 316.512 9.00665 315.265 4.5522 312.544C4.0788 312.241 3.52834 312.079 2.96576 312.078C2.40319 312.076 1.85197 312.236 1.37709 312.537C0.902213 312.838 0.523488 313.268 0.285602 313.777C0.0477169 314.286 -0.0394143 314.852 0.0344811 315.408C0.0404483 315.448 0.0465306 315.488 0.0527075 315.527C0.716732 315.797 1.36325 316.108 1.98853 316.458C2.34636 316.66 2.69665 316.873 3.03936 317.1C3.4699 317.387 3.8035 317.797 3.99646 318.277C4.18942 318.756 4.23273 319.283 4.12073 319.787C4.00873 320.292 3.74664 320.751 3.36879 321.104C2.99094 321.457 2.51497 321.689 2.00322 321.767L1.95078 321.775C1.91303 321.781 1.88069 321.786 1.84299 321.792C2.97757 324.495 4.56998 326.984 6.55049 329.149C8.9971 331.769 11.9542 333.863 15.2403 335.302C18.5265 336.741 22.0726 337.495 25.6611 337.517H25.6665C26.6406 341.742 28.052 345.855 29.878 349.788H44.9226C44.9766 349.621 45.0251 349.449 45.0737 349.282C43.6811 349.37 42.283 349.287 40.9107 349.035C42.0269 347.668 43.1431 346.29 44.2594 344.923C44.2843 344.897 44.3077 344.87 44.3295 344.842C44.8957 344.143 45.4673 343.448 46.0335 342.749L46.0338 342.748C46.0639 340.603 45.8174 338.464 45.3001 336.382L45.2996 336.382Z" fill="#E2D1BB"/>
<path d="M146.35 350.839L1.75891 351C1.59333 351 1.43452 350.934 1.31743 350.818C1.20034 350.701 1.13456 350.542 1.13456 350.377C1.13456 350.212 1.20034 350.053 1.31743 349.936C1.43452 349.82 1.59333 349.754 1.75891 349.754L146.35 349.593C146.516 349.593 146.675 349.659 146.792 349.776C146.909 349.892 146.975 350.051 146.975 350.216C146.975 350.381 146.909 350.54 146.792 350.657C146.675 350.774 146.516 350.839 146.35 350.839Z" fill="#CACACA"/>
</g>
<defs>
<clipPath id="clip0_29_1914">
<rect width="299" height="351" fill="white"/>
</clipPath>
</defs>
</svg>
