<svg width="62" height="80" viewBox="0 0 62 80" fill="none" xmlns="http://www.w3.org/2000/svg">
<path d="M60.0281 0H1.97192C1.25624 0 0.676025 0.580216 0.676025 1.2959V78.7041C0.676025 79.4198 1.25624 80 1.97192 80H60.0281C60.7438 80 61.324 79.4198 61.324 78.7041V1.2959C61.324 0.580216 60.7438 0 60.0281 0ZM3.26782 4.42436L6.20518 7.36173V72.6381L3.26782 75.5755V4.42436ZM8.79698 71.879V8.12095H53.203V71.879H8.79698ZM53.9622 5.52916H8.03775L5.10039 2.59179H56.8994L53.9622 5.52916ZM8.03775 74.4708H53.9621L56.8994 77.4082H5.10039L8.03775 74.4708ZM55.7948 72.6383V7.36173L58.7322 4.42436V75.5755L55.7948 72.6383Z" fill="#E2D1BB"/>
<path d="M48.9698 11.0583H13.0303C12.3146 11.0583 11.7344 11.6385 11.7344 12.3542V67.6458C11.7344 68.3614 12.3146 68.9417 13.0303 68.9417H48.9698C49.6855 68.9417 50.2657 68.3614 50.2657 67.6458V12.3542C50.2657 11.6385 49.6855 11.0583 48.9698 11.0583ZM27.3491 40.185C26.8651 39.9846 26.3075 40.0952 25.9369 40.466L25.3185 41.0844C23.8781 42.5247 21.5345 42.5249 20.0914 41.0816C19.179 40.1693 18.8067 38.825 19.1196 37.5734L24.0886 17.6971L25.9391 25.0994C25.7872 25.0706 25.631 25.054 25.4709 25.054C24.0895 25.054 22.9655 26.1779 22.9655 27.5594C22.9655 28.9408 24.0895 30.0648 25.4709 30.0648C26.0653 30.0648 26.6114 29.8557 27.0415 29.5086L31.0681 45.6155H28.1491V41.3823C28.1491 40.858 27.8334 40.3856 27.3491 40.185ZM25.5573 27.5594C25.5573 27.6071 25.5186 27.6458 25.4709 27.6458C25.4232 27.6458 25.3845 27.6071 25.3845 27.5594C25.3845 27.5117 25.4232 27.473 25.4709 27.473C25.5186 27.473 25.5573 27.5117 25.5573 27.5594ZM26.8532 61.9006C29.5497 61.9006 31.8076 63.8115 32.346 66.3499H21.3603C21.8987 63.8115 24.1567 61.9006 26.8532 61.9006ZM28.1491 59.4122V55.4037L33.7976 56.5334L36.2517 66.3499H34.9762C34.4687 62.7995 31.6817 59.9749 28.1491 59.4122ZM29.7646 53.0835L32.3885 50.8969L33.1022 53.751L29.7646 53.0835ZM38.5617 64.9036L34.5993 49.0545L35.9764 47.9068C36.3956 47.5576 36.5511 46.9831 36.3654 46.4701C36.1796 45.9571 35.6924 45.6153 35.1469 45.6153H33.7397L30.6885 33.4104C32.5815 34.8639 35.1329 35.7233 37.8251 35.7233C40.8834 35.7233 43.7601 34.6144 45.696 32.7851C46.9923 36.1688 47.6739 39.7874 47.6739 43.4557C47.6739 51.5882 44.3747 59.2964 38.5617 64.9036ZM44.4587 30.3239C44.0758 30.7984 43.6062 31.2221 43.0733 31.59C43.1713 31.1836 43.2247 30.7599 43.2247 30.3239C43.2247 29.888 43.1713 29.4643 43.0733 29.0579C43.6062 29.4258 44.0756 29.8495 44.4587 30.3239ZM40.6329 30.3239C40.6329 31.8721 39.3733 33.1317 37.8251 33.1317C36.2769 33.1317 35.0173 31.8721 35.0173 30.3239C35.0173 28.7758 36.2769 27.5162 37.8251 27.5162C39.3733 27.5162 40.6329 28.7758 40.6329 30.3239ZM32.5769 31.59C32.044 31.2219 31.5745 30.7984 31.1915 30.3239C31.5744 29.8495 32.044 29.4258 32.5769 29.0579C32.4789 29.4643 32.4255 29.888 32.4255 30.3239C32.4255 30.7599 32.4789 31.1836 32.5769 31.59ZM37.8251 24.9244C34.4801 24.9244 31.3515 26.25 29.4344 28.3948L26.0317 14.7844C31.7969 16.4278 36.9981 19.8149 40.8539 24.4798C41.1391 24.825 41.4158 25.1763 41.6843 25.5331C40.4756 25.1386 39.168 24.9244 37.8251 24.9244ZM14.3262 13.6501H22.4288L16.6052 36.9448C16.0727 39.0745 16.7063 41.3617 18.2614 42.9169C20.2323 44.8877 23.1968 45.2738 25.5573 44.075V46.9114C25.5573 47.6271 26.1375 48.2073 26.8532 48.2073H31.5676L26.0236 52.8273C25.7282 53.0735 25.5573 53.4382 25.5573 53.8229V59.4122C22.0247 59.9751 19.2376 62.7995 18.7301 66.3499H14.3262V13.6501ZM47.6739 66.3499H40.7901C43.7406 63.3973 46.0653 59.9355 47.6739 56.1619V66.3499ZM42.8518 22.8287C39.5345 18.8152 35.2995 15.6724 30.5691 13.6501H47.6739V30.7678C46.4627 27.9191 44.8445 25.2397 42.8518 22.8287Z" fill="white"/>
</svg>
